<svg width="56" height="31" viewBox="0 0 56 31" fill="none" xmlns="http://www.w3.org/2000/svg">
<path d="M6 30.28C3.6 30.28 1.98667 29.5467 1.16 28.08C0.786667 27.44 0.533334 26.6667 0.4 25.76C0.266667 24.8267 0.2 23.6933 0.2 22.36V9.6H7.6V19.24C7.6 20.6533 7.61333 21.5867 7.64 22.04C7.69333 22.7067 7.77333 23.1867 7.88 23.48C7.98667 23.7733 8.16 23.96 8.4 24.04C8.64 24.0933 9.06667 24.12 9.68 24.12H10.08V29.12C9.04 29.8933 7.68 30.28 6 30.28ZM11.76 9.6H19.16V30H11.76V9.6ZM23.9975 23.48H32.0775V30H23.9975V23.48ZM48.0806 0.279999H55.4806V30H48.0806V0.279999ZM42.3206 30.28C41.254 30.28 40.334 30.1067 39.5606 29.76C38.814 29.4133 38.214 28.8533 37.7606 28.08C37.254 27.28 36.8806 26.2133 36.6406 24.88C36.4273 23.5467 36.3206 21.88 36.3206 19.88C36.3206 15.96 36.8006 13.2133 37.7606 11.64C38.6673 10.0933 40.1873 9.32 42.3206 9.32C43.2806 9.32 44.0673 9.4 44.6806 9.56C45.294 9.69333 45.8673 9.97333 46.4006 10.4V15.48H45.9606C45.374 15.48 44.9473 15.52 44.6806 15.6C44.4406 15.6533 44.254 15.8 44.1206 16.04C43.9873 16.3333 43.9073 16.76 43.8806 17.32C43.854 17.72 43.8406 18.5467 43.8406 19.8C43.8406 21.0533 43.854 21.88 43.8806 22.28C43.9073 22.84 43.9873 23.2667 44.1206 23.56C44.254 23.8267 44.4673 23.9867 44.7606 24.04C45.134 24.0933 45.534 24.12 45.9606 24.12H46.4006V29.2C45.8673 29.6 45.2673 29.88 44.6006 30.04C43.9606 30.2 43.2006 30.28 42.3206 30.28Z" fill="#5D5D6D"/>
</svg>
